<svg width="24" height="25" xmlns="http://www.w3.org/2000/svg">
  <path d="M16.657 5.66c-1.1-1.058-2.625-1.64-4.291-1.64-2.545 0-4.11 1.043-4.976 1.918-1.066 1.079-1.677 2.51-1.677 3.93 0 1.78.745 3.147 1.992 3.656a.66.66 0 0 0 .251.051c.263 0 .472-.172.544-.448.042-.159.14-.55.182-.72.091-.334.018-.496-.18-.73-.361-.426-.53-.93-.53-1.588 0-1.951 1.454-4.026 4.147-4.026 2.137 0 3.465 1.215 3.465 3.17 0 1.234-.266 2.377-.749 3.218-.335.584-.925 1.28-1.83 1.28-.392 0-.744-.16-.966-.44a1.11 1.11 0 0 1-.194-.965c.095-.403.225-.824.35-1.23.23-.743.447-1.445.447-2.004 0-.957-.589-1.6-1.464-1.6-1.114 0-1.986 1.13-1.986 2.573 0 .708.189 1.237.274 1.44l-1.132 4.792c-.091.389-.642 3.46.27 3.705 1.023.275 1.939-2.716 2.032-3.054.075-.275.34-1.314.501-1.953.495.476 1.29.798 2.065.798 1.46 0 2.773-.657 3.697-1.85.896-1.156 1.39-2.769 1.39-4.54 0-1.384-.595-2.749-1.632-3.744Z" fill="var(--color, currentColor)"/>
</svg>
