<svg xmlns="http://www.w3.org/2000/svg" viewBox="0 0 24 25">
  <path d="M20 7.06a6.58 6.58 0 0 1-1.886.516 3.294 3.294 0 0 0 1.444-1.816 6.56 6.56 0 0 1-2.085.797A3.282 3.282 0 0 0 11.88 9.55a9.32 9.32 0 0 1-6.766-3.43 3.282 3.282 0 0 0 1.016 4.383 3.27 3.27 0 0 1-1.487-.411v.04a3.285 3.285 0 0 0 2.633 3.22c-.484.13-.99.15-1.483.056a3.285 3.285 0 0 0 3.067 2.28A6.59 6.59 0 0 1 4 17.05a9.286 9.286 0 0 0 5.031 1.476c6.039 0 9.341-5.003 9.341-9.341a9.61 9.61 0 0 0-.01-.424A6.67 6.67 0 0 0 20 7.06Z" fill="var(--color, currentColor)"/>
</svg>
