<?xml version="1.0" encoding="utf-8"?><svg viewBox="0 0 41 40" xmlns="http://www.w3.org/2000/svg" xmlns:xlink="http://www.w3.org/1999/xlink"><style>:root>svg{display:none}:root>svg:target{display:block}</style><svg viewBox="0 0 18 19" id="arrow" xmlns="http://www.w3.org/2000/svg"><path d="M12.008 8.27H3v1.5h9.008v2.25l2.992-3-2.992-3v2.25Z" fill="var(--color, currentColor)"/></svg><svg viewBox="0 0 41 40" id="arrow-link" xmlns="http://www.w3.org/2000/svg"><path d="M11.333 9.166v3.333h14.316L9.666 28.483l2.35 2.35 15.983-15.984v14.317h3.334v-20h-20Z" fill="var(--color, currentColor)"/></svg><svg viewBox="0 0 24 24" id="chevron" xmlns="http://www.w3.org/2000/svg"><path d="m9.705 6-1.41 1.41 4.58 4.59-4.58 4.59L9.705 18l6-6-6-6Z" fill="var(--color, currentColor)"/></svg><svg viewBox="0 0 24 25" id="facebook" xmlns="http://www.w3.org/2000/svg"><path d="M10.084 21.02v-8.2H7.33V9.611h2.754V7.249c0-2.739 1.672-4.23 4.115-4.23 1.17 0 2.176.088 2.47.127v2.862h-1.686c-1.329 0-1.586.632-1.586 1.559v2.044h3.178l-.414 3.21h-2.764v8.199h-3.313Z" fill="var(--color, currentColor)"/></svg><svg viewBox="0 0 24 24" id="mail" xmlns="http://www.w3.org/2000/svg"><path d="M22 6c0-1.1-.9-2-2-2H4c-1.1 0-2 .9-2 2v12c0 1.1.9 2 2 2h16c1.1 0 2-.9 2-2V6Zm-2 0-8 5-8-5h16Zm0 12H4V8l8 5 8-5v10Z" fill="var(--color, currentColor)"/></svg><svg viewBox="0 0 24 24" id="phone" xmlns="http://www.w3.org/2000/svg"><path d="M6.54 5c.06.89.21 1.76.45 2.59l-1.2 1.2c-.41-1.2-.67-2.47-.76-3.79h1.51Zm9.86 12.02c.85.24 1.72.39 2.6.45v1.49c-1.32-.09-2.59-.35-3.8-.75l1.2-1.19ZM7.5 3H4c-.55 0-1 .45-1 1 0 9.39 7.61 17 17 17 .55 0 1-.45 1-1v-3.49c0-.55-.45-1-1-1-1.24 0-2.45-.2-3.57-.57a.84.84 0 0 0-.31-.05c-.26 0-.51.1-.71.29l-2.2 2.2a15.149 15.149 0 0 1-6.59-6.59l2.2-2.2c.28-.28.36-.67.25-1.02A11.36 11.36 0 0 1 8.5 4c0-.55-.45-1-1-1Z" fill="var(--color, currentColor)"/></svg><svg viewBox="0 0 24 25" id="pinterest" xmlns="http://www.w3.org/2000/svg"><path d="M16.657 5.66c-1.1-1.058-2.625-1.64-4.291-1.64-2.545 0-4.11 1.043-4.976 1.918-1.066 1.079-1.677 2.51-1.677 3.93 0 1.78.745 3.147 1.992 3.656a.66.66 0 0 0 .251.051c.263 0 .472-.172.544-.448.042-.159.14-.55.182-.72.091-.334.018-.496-.18-.73-.361-.426-.53-.93-.53-1.588 0-1.951 1.454-4.026 4.147-4.026 2.137 0 3.465 1.215 3.465 3.17 0 1.234-.266 2.377-.749 3.218-.335.584-.925 1.28-1.83 1.28-.392 0-.744-.16-.966-.44a1.11 1.11 0 0 1-.194-.965c.095-.403.225-.824.35-1.23.23-.743.447-1.445.447-2.004 0-.957-.589-1.6-1.464-1.6-1.114 0-1.986 1.13-1.986 2.573 0 .708.189 1.237.274 1.44l-1.132 4.792c-.091.389-.642 3.46.27 3.705 1.023.275 1.939-2.716 2.032-3.054.075-.275.34-1.314.501-1.953.495.476 1.29.798 2.065.798 1.46 0 2.773-.657 3.697-1.85.896-1.156 1.39-2.769 1.39-4.54 0-1.384-.595-2.749-1.632-3.744Z" fill="var(--color, currentColor)"/></svg><svg viewBox="0 0 24 25" id="twitter" xmlns="http://www.w3.org/2000/svg"><path d="M20 7.06a6.58 6.58 0 0 1-1.886.516 3.294 3.294 0 0 0 1.444-1.816 6.56 6.56 0 0 1-2.085.797A3.282 3.282 0 0 0 11.88 9.55a9.32 9.32 0 0 1-6.766-3.43 3.282 3.282 0 0 0 1.016 4.383 3.27 3.27 0 0 1-1.487-.411v.04a3.285 3.285 0 0 0 2.633 3.22c-.484.13-.99.15-1.483.056a3.285 3.285 0 0 0 3.067 2.28A6.59 6.59 0 0 1 4 17.05a9.286 9.286 0 0 0 5.031 1.476c6.039 0 9.341-5.003 9.341-9.341a9.61 9.61 0 0 0-.01-.424A6.67 6.67 0 0 0 20 7.06Z" fill="var(--color, currentColor)"/></svg></svg>